<svg xmlns="http://www.w3.org/2000/svg" width="48.9933" height="104.7362" viewBox="0 0 48.9933 104.7362"><defs><style>.a,.j{fill:none;stroke-miterlimit:10;}.a{stroke:#000;}.b{fill:#282830;}.c{fill:#fda09b;}.d{fill:#f6c4c1;}.e{fill:#ffb8d4;}.f{fill:#1f2026;}.g{fill:#760940;}.h{fill:#c6332c;}.i{fill:#efe8e1;}.j{stroke:#fcc;stroke-linecap:round;stroke-width:5.5px;}.k{fill:#c69c6d;}.l{fill:#2e2f3a;}.m{fill:#069;}.n{fill:#666;}.o{fill:#300;}.p{fill:#ccc;}.q{fill:#999;}.r{fill:#333;}</style></defs><path class="a" d="M48.4925,51.3536a.2272.2272,0,0,1-.21.25l-.22.02c.07.86.11,1.75.14,2.67a2.75,2.75,0,0,1-2.66,2.84h-.09a2.7431,2.7431,0,0,1-2.74-2.67c-.02-.82-.06-1.6-.12-2.37l-.27.02a.2366.2366,0,0,1-.26-.21l-.07-.87a.2274.2274,0,0,1,.21-.25h.02c-1.03-11.42-5.09-16.82-7.81-19.2v27.29a2.1732,2.1732,0,0,1-.06.51.4552.4552,0,0,1,.3.42v1.48a.459.459,0,0,1-.46.46h-.15a1.0863,1.0863,0,0,1,.01.18l.13,37.54a2.8633,2.8633,0,0,1,1.5,2.52v1.4h.14v.82h-4.39a.2763.2763,0,0,1-.09.01,1.1086,1.1086,0,0,1-.19.02c-.98.01-1.59-.01-1.96-.03h-1.37v-.82h.23v-1.4c0-.13.01-.25.02-.37-.83-6.96-2.12-26.47-2.68-35.22a2.1709,2.1709,0,0,0-1.27-.38,2.099,2.099,0,0,0-1.03.35c-.57,8.5-1.88,27.27-2.74,34.68a2.9035,2.9035,0,0,1,.16.94v1.4h.14v.82h-1.4c-.36.02-.98.04-2,.02a1.64,1.64,0,0,1-.23-.02h-4.37v-.82h.24v-1.4a2.83,2.83,0,0,1,.92-2.1,2.5309,2.5309,0,0,1,.38-.42l.25-37.55a.9144.9144,0,0,1,.01-.17h-.22a.4526.4526,0,0,1-.46-.46v-1.48a.4334.4334,0,0,1,.37-.44,2.6524,2.6524,0,0,1-.05-.49v-26.82c-2.55,2.44-6.31,7.84-7.31,18.73h.01a.2343.2343,0,0,1,.21.25l-.08.87a.2273.2273,0,0,1-.25.21l-.25-.02q-.09,1.14-.12,2.37a2.743,2.743,0,0,1-2.74,2.67h-.09a2.75,2.75,0,0,1-2.66-2.84c.03-.92.07-1.81.14-2.67l-.24-.02a.221.221,0,0,1-.21-.25l.07-.87a.22.22,0,0,1,.22-.21c1.99-21.86,14.19-26.03,14.73-26.21a3.003,3.003,0,0,1,2.55.32h1.93v-4.2a6.0893,6.0893,0,0,1-2.83-5.15v-2.89h-.14a.4461.4461,0,0,1-.45-.44v-2.38a.7774.7774,0,0,1-.3-.62v-3.65a.8044.8044,0,0,1,.8-.81h.09v-1.91a1.6369,1.6369,0,0,1,.49-1.19,1.6988,1.6988,0,0,1,1.19-.5c1.52-.06,3.08-.11,4.67-.13,2.89-.04,5.67.01,8.33.13a.7043.7043,0,0,1,.7.71v1.14a2.3075,2.3075,0,0,1-.66,1.62,1.4365,1.4365,0,0,1-.27.22.813.813,0,0,1,.43.72v3.65a.7979.7979,0,0,1-.3.63v2.37a.444.444,0,0,1-.44.44h-.14v2.89a6.075,6.075,0,0,1-2.84,5.15v4.2h2.59a3.0229,3.0229,0,0,1,1.62-.47,3.0936,3.0936,0,0,1,.95.15c.54.18,12.73,4.35,14.73,26.22a.2151.2151,0,0,1,.2.2Z"/><rect class="b" x="16.2796" y="4.2464" width="15.7778" height="5.2667" rx="0.8069"/><rect class="c" x="20.0019" y="19.0798" width="8.3333" height="5.6667"/><path class="d" d="M24.1685.9131h.7722a6.2278,6.2278,0,0,1,6.2278,6.2278V15.03a6.1167,6.1167,0,0,1-6.1167,6.1167H23.2852A6.1167,6.1167,0,0,1,17.1685,15.03V7.9131a7,7,0,0,1,7-7Z"/><path class="e" d="M31.7519,9.09v2.6133a.4432.4432,0,0,1-.4434.4433h-.14v-3.5h.14A.4432.4432,0,0,1,31.7519,9.09Z"/><path class="e" d="M16.5852,9.09v2.6133a.4432.4432,0,0,0,.4433.4433h.14v-3.5h-.14A.4432.4432,0,0,0,16.5852,9.09Z"/><rect class="f" x="25.896" y="5.4753" width="2.8056" height="0.8267" rx="0.4133"/><rect class="f" x="20.1847" y="5.4753" width="2.8056" height="0.8267" rx="0.4133"/><path class="g" d="M25.5868,14.8648v3.18a.11.11,0,0,1-.005.04v.035a.3647.3647,0,0,1-.36.29h-1.94a.3648.3648,0,0,1-.36-.29v-.035a.1122.1122,0,0,1-.0049-.04v-3.18a.3671.3671,0,0,1,.365-.3651h1.94A.3671.3671,0,0,1,25.5868,14.8648Z"/><path class="h" d="M25.5824,18.0848v.035a.3648.3648,0,0,1-.36.29h-1.94a.365.365,0,0,1-.36-.29v-.035a1.1422,1.1422,0,0,1,1.13-1.02h.4A1.1421,1.1421,0,0,1,25.5824,18.0848Z"/><path class="i" d="M24.8618,14.9248h-1.22a.425.425,0,0,1-.425-.425h2.07A.425.425,0,0,1,24.8618,14.9248Z"/><path class="j" d="M32.5575,26.9131s12.1888,4,12.9,27.4667"/><path class="i" d="M23.6419,17.9859h1.22a.425.425,0,0,1,.425.425h-2.07A.425.425,0,0,1,23.6419,17.9859Z"/><path class="j" d="M16.4574,26.9131s-12.1888,4-12.9,27.4667"/><path class="k" d="M32.2491,60.7909H16.2546a1.9138,1.9138,0,0,1-1.9138-1.9139V30.78c-.9418-2.3312-.6934-4.5791.5605-5.5839a2.7534,2.7534,0,0,1,1.3533-.5606H32.2491a2.6641,2.6641,0,0,1,1.3533.5606c1.1395.9315,1.3891,2.93.56,4.9616v28.72A1.9138,1.9138,0,0,1,32.2491,60.7909Z"/><rect class="i" x="25.946" y="7.1896" width="2.6348" height="3.7" rx="1.3174"/><rect x="26.7634" y="7.7828" width="1" height="1" rx="0.5"/><rect class="i" x="20.2398" y="7.1896" width="2.6348" height="3.7" rx="1.3174"/><rect x="21.0572" y="7.7828" width="1" height="1" rx="0.5"/><path class="l" d="M17.1685,4.78c4.1059-1.5387,6.6951-1.25,8.3333-.6445a12.1227,12.1227,0,0,0,4.7723.6445,2.5906,2.5906,0,0,0,1.6145-.6688,2.2762,2.2762,0,0,0,.6689-1.6145V1.352a.7057.7057,0,0,0-.7056-.7056C29.1939.528,26.4149.4769,23.5241.5131q-2.3913.03-4.6722.1333a1.7193,1.7193,0,0,0-1.19.4931,1.6781,1.6781,0,0,0-.4931,1.19Z"/><path class="b" d="M17.7657,4.2464H17.83a0,0,0,0,1,0,0V9.5131a0,0,0,0,1,0,0h-.1444a.5166.5166,0,0,1-.5166-.5166V4.8436A.5972.5972,0,0,1,17.7657,4.2464Z" transform="translate(34.9981 13.7595) rotate(180)"/><path class="b" d="M31.0241,4.2464h.1444a0,0,0,0,1,0,0V9.5131a0,0,0,0,1,0,0h-.0639a.5972.5972,0,0,1-.5972-.5972V4.7631a.5166.5166,0,0,1,.5166-.5166Z"/><path class="k" d="M31.6518,98.4686h0a3.5778,3.5778,0,0,1,3.5778,3.5778v1.8222a.3333.3333,0,0,1-.3333.3333H28.4073a.3333.3333,0,0,1-.3333-.3333v-1.8222A3.5778,3.5778,0,0,1,31.6518,98.4686Z"/><path class="k" d="M16.6518,98.4686h0a3.5778,3.5778,0,0,1,3.5778,3.5778v1.8222a.3333.3333,0,0,1-.3333.3333H13.4073a.3333.3333,0,0,1-.3333-.3333v-1.8222A3.5778,3.5778,0,0,1,16.6518,98.4686Z"/><path class="m" d="M34.1873,100.8964c-.615,1.83-1.7749,3.32-3.03,3.335a10.8313,10.8313,0,0,1-2.535-.09c-.71-.13-2.49-26.97-3.18-37.7149-.0052-.005-.015-.01-.02-.0151a2.2119,2.2119,0,0,0-1.3-.4,2.0632,2.0632,0,0,0-1.03.355c-.715,10.69-2.595,37.65-3.305,37.78a10.7325,10.7325,0,0,1-2.535.08c-1.255-.015-2.41-1.51-3.015-3.345l.265-38.965a3.1284,3.1284,0,0,1,3.06-3.24l1.46.0249v-.0249h11.2v.0149l.78-.01a3.128,3.128,0,0,1,3.05,3.245Z"/><path class="n" d="M48.3223,51.5714l-5.9849.505c-.84-12.31-5.105-18.0249-7.925-20.495v27.295a2.1658,2.1658,0,0,1-2.165,2.165H16.2524a2.1648,2.1648,0,0,1-2.16-2.165V32.0515c-2.6451,2.5449-6.61,8.27-7.42,20.03l-5.9751-.505c1.61-23,14.2751-27.33,14.83-27.515a3.0969,3.0969,0,0,1,.935-.145,2.9771,2.9771,0,0,1,1.61.47h12.85a3.0279,3.0279,0,0,1,1.625-.47,3.2105,3.2105,0,0,1,.945.145C34.0474,24.2464,46.7025,28.5764,48.3223,51.5714Z"/><rect class="o" x="13.7699" y="59.3464" width="20.8819" height="2.4" rx="0.4583"/><rect class="p" x="22.5065" y="59.0798" width="3.4709" height="2.8918"/><polygon class="q" points="25.661 59.356 22.794 59.356 22.794 61.711 23.079 59.609 25.661 59.356"/><rect class="r" x="42.017" y="50.5229" width="6.4511" height="1.3389" rx="0.2335" transform="translate(-4.2209 4.0658) rotate(-4.9165)"/><rect class="r" x="0.5237" y="50.5229" width="6.4511" height="1.3389" rx="0.2335" transform="translate(3.0974 102.5177) rotate(-175.0835)"/><path class="r" d="M15.8345,98.88H17.57a2.9438,2.9438,0,0,1,2.9438,2.9438V103.38a0,0,0,0,1,0,0H12.8907a0,0,0,0,1,0,0V101.824A2.9438,2.9438,0,0,1,15.8345,98.88Z"/><rect x="12.6574" y="103.3798" width="8" height="1.0116"/><path class="r" d="M30.9238,99.1137h1.89A2.8664,2.8664,0,0,1,35.68,101.98v1.4a0,0,0,0,1,0,0H28.0574a0,0,0,0,1,0,0v-1.4A2.8664,2.8664,0,0,1,30.9238,99.1137Z"/><rect x="27.8241" y="103.3798" width="8" height="1.0116"/></svg>