<svg xmlns="http://www.w3.org/2000/svg" width="1921.8656" height="537.2447" viewBox="0 0 1921.8656 537.2447"><defs><style>.a{fill:#0045f4;opacity:0.9;}</style></defs><path class="a" d="M1921.8656,107.2447v430H0v-430H1.5007v-89.23c50.5727,0,164.354-33.18,243.38-9.48,79.0156,23.69,241.0085,9.87,241.0085,9.87,50.5728,0,164.3541-33.17,243.37-9.48,79.0255,23.7,231.5342,9.48,231.5342,9.48,50.5629,0,164.3541-33.57,243.37-9.87,79.0255,23.69,241.0085,9.87,241.0085,9.87,43.39,0,133.33-24.42,207.9037-16.39a197.5339,197.5339,0,0,1,35.476,6.91c79.0156,23.7,232.3146.79,232.3146.79v97.53Z"/></svg>